<svg xmlns="http://www.w3.org/2000/svg" xmlns:xlink="http://www.w3.org/1999/xlink" width="500" zoomAndPan="magnify" viewBox="0 0 375 374.999991" height="500" preserveAspectRatio="xMidYMid meet" version="1.0"><defs><g/><clipPath id="dc7a81ef95"><path d="M 144.277344 155 L 230.527344 155 L 230.527344 237.867188 L 144.277344 237.867188 Z M 144.277344 155 " clip-rule="nonzero"/></clipPath><clipPath id="2c24e6d639"><path d="M 216 151.617188 L 230.527344 151.617188 L 230.527344 167 L 216 167 Z M 216 151.617188 " clip-rule="nonzero"/></clipPath></defs><g clip-path="url(#dc7a81ef95)"><path fill="#f8f4eb" d="M 153.980469 188.089844 C 154.191406 185.460938 155.402344 183.050781 157.390625 181.3125 L 180.855469 160.785156 C 184.644531 157.46875 190.347656 157.46875 194.136719 160.785156 L 217.601562 181.3125 C 219.589844 183.050781 220.800781 185.460938 221.011719 188.089844 L 224.828125 235.171875 L 150.164062 235.171875 Z M 229.273438 235.171875 L 227.722656 235.171875 L 223.890625 187.859375 C 223.613281 184.476562 222.054688 181.378906 219.5 179.144531 L 196.03125 158.613281 C 191.164062 154.355469 183.828125 154.351562 178.960938 158.613281 L 155.492188 179.144531 C 152.9375 181.378906 151.378906 184.476562 151.105469 187.859375 L 147.269531 235.171875 L 145.71875 235.171875 C 144.925781 235.171875 144.277344 235.820312 144.277344 236.613281 C 144.277344 237.40625 144.925781 238.054688 145.71875 238.054688 L 229.273438 238.054688 C 230.066406 238.054688 230.714844 237.40625 230.714844 236.613281 C 230.714844 235.820312 230.066406 235.171875 229.273438 235.171875 " fill-opacity="1" fill-rule="nonzero"/></g><path fill="#f8f4eb" d="M 202.792969 229.410156 L 202.628906 229.078125 C 200.496094 224.8125 200.6875 219.832031 203.136719 215.746094 C 203.40625 215.300781 203.410156 214.746094 203.15625 214.296875 C 202.898438 213.84375 202.421875 213.5625 201.902344 213.5625 C 197.085938 213.5625 192.613281 210.964844 190.21875 206.78125 L 188.9375 204.539062 L 188.9375 181.78125 C 194.300781 182.164062 199.332031 184.617188 202.898438 188.691406 C 205.148438 191.269531 206.730469 194.390625 207.472656 197.726562 L 214.511719 229.410156 Z M 167.519531 197.726562 C 168.261719 194.390625 169.84375 191.269531 172.09375 188.691406 C 175.660156 184.617188 180.691406 182.164062 186.054688 181.78125 L 186.054688 229.410156 L 160.480469 229.410156 Z M 197.953125 229.410156 L 188.9375 229.410156 L 188.9375 216.429688 C 190.96875 221.335938 194.03125 225.757812 197.953125 229.410156 Z M 198.566406 225.984375 C 194.671875 221.9375 191.839844 217.019531 190.292969 211.597656 C 192.796875 214.121094 196.082031 215.785156 199.628906 216.289062 C 198.304688 219.367188 197.945312 222.730469 198.566406 225.984375 Z M 205.066406 186.792969 C 200.628906 181.730469 194.226562 178.824219 187.496094 178.824219 C 180.765625 178.824219 174.363281 181.730469 169.925781 186.792969 C 167.359375 189.730469 165.554688 193.300781 164.703125 197.101562 L 157.277344 230.535156 C 157.179688 230.964844 157.289062 231.414062 157.558594 231.75 C 157.832031 232.09375 158.246094 232.292969 158.683594 232.292969 L 216.308594 232.292969 C 216.746094 232.292969 217.160156 232.09375 217.433594 231.75 C 217.703125 231.414062 217.8125 230.964844 217.714844 230.535156 L 210.289062 197.101562 C 209.4375 193.300781 207.632812 189.730469 205.066406 186.792969 " fill-opacity="1" fill-rule="nonzero"/><g clip-path="url(#2c24e6d639)"><path fill="#f8f4eb" d="M 223.511719 160.304688 C 223.089844 159.742188 222.589844 159.242188 222.027344 158.820312 C 222.589844 158.398438 223.089844 157.898438 223.511719 157.335938 C 223.933594 157.898438 224.433594 158.398438 224.996094 158.820312 C 224.433594 159.242188 223.933594 159.742188 223.511719 160.304688 Z M 229.273438 157.378906 C 226.886719 157.378906 224.953125 155.445312 224.953125 153.058594 C 224.953125 152.265625 224.304688 151.617188 223.511719 151.617188 C 222.71875 151.617188 222.070312 152.265625 222.070312 153.058594 C 222.070312 155.445312 220.136719 157.378906 217.75 157.378906 C 216.957031 157.378906 216.308594 158.027344 216.308594 158.820312 C 216.308594 159.613281 216.957031 160.261719 217.75 160.261719 C 220.136719 160.261719 222.070312 162.195312 222.070312 164.582031 C 222.070312 165.375 222.71875 166.023438 223.511719 166.023438 C 224.304688 166.023438 224.953125 165.375 224.953125 164.582031 C 224.953125 162.195312 226.886719 160.261719 229.273438 160.261719 C 230.066406 160.261719 230.714844 159.613281 230.714844 158.820312 C 230.714844 158.027344 230.066406 157.378906 229.273438 157.378906 " fill-opacity="1" fill-rule="nonzero"/></g><path fill="#f8f4eb" d="M 152.921875 165.976562 C 153.34375 166.539062 153.839844 167.042969 154.40625 167.464844 C 153.839844 167.886719 153.34375 168.386719 152.921875 168.949219 C 152.5 168.386719 152.003906 167.886719 151.433594 167.464844 C 152.003906 167.042969 152.5 166.539062 152.921875 165.976562 Z M 151.480469 173.226562 C 151.480469 174.019531 152.128906 174.667969 152.921875 174.667969 C 153.714844 174.667969 154.363281 174.019531 154.363281 173.226562 C 154.363281 170.839844 156.296875 168.902344 158.683594 168.902344 C 159.476562 168.902344 160.125 168.257812 160.125 167.464844 C 160.125 166.671875 159.476562 166.023438 158.683594 166.023438 C 156.296875 166.023438 154.363281 164.085938 154.363281 161.699219 C 154.363281 160.90625 153.714844 160.261719 152.921875 160.261719 C 152.128906 160.261719 151.480469 160.90625 151.480469 161.699219 C 151.480469 164.085938 149.542969 166.023438 147.160156 166.023438 C 146.363281 166.023438 145.71875 166.671875 145.71875 167.464844 C 145.71875 168.257812 146.363281 168.902344 147.160156 168.902344 C 149.542969 168.902344 151.480469 170.839844 151.480469 173.226562 " fill-opacity="1" fill-rule="nonzero"/><g fill="#f8f4eb" fill-opacity="1"><g transform="translate(120.308859, 134.715637)"><g><path d="M 19.734375 -23.03125 L 11.828125 -11.796875 L 20.46875 0 L 14.625 0 L 8.953125 -7.734375 L 3.53125 0 L 2.828125 0 L 2.828125 -23.03125 L 7.5625 -23.03125 L 7.5625 -6.9375 L 18.859375 -23.03125 Z M 19.734375 -23.03125 "/></g></g></g><g fill="#f8f4eb" fill-opacity="1"><g transform="translate(142.528844, 134.715637)"><g><path d="M 1.578125 0 L 12.25 -23.234375 L 22.40625 0 L 17.25 0 L 14.34375 -6.6875 L 5.421875 -6.6875 L 2.34375 0 Z M 9.96875 -16.625 L 5.734375 -7.390625 L 14.03125 -7.390625 Z M 9.96875 -16.625 "/></g></g></g><g fill="#f8f4eb" fill-opacity="1"><g transform="translate(166.498435, 134.715637)"><g><path d="M 18.171875 -6.796875 C 18.171875 -4.640625 17.429688 -2.9375 15.953125 -1.6875 C 14.484375 -0.425781 12.488281 0.203125 9.96875 0.203125 C 8.382812 0.203125 6.859375 -0.117188 5.390625 -0.765625 C 3.898438 -1.421875 2.816406 -2.390625 2.140625 -3.671875 L 2.5625 -4.234375 C 3.164062 -3.046875 4.191406 -2.113281 5.640625 -1.4375 C 7.054688 -0.800781 8.5 -0.484375 9.96875 -0.484375 C 11.507812 -0.484375 12.757812 -0.847656 13.71875 -1.578125 C 14.65625 -2.296875 15.125 -3.238281 15.125 -4.40625 C 15.125 -6.226562 13.066406 -8.003906 8.953125 -9.734375 C 6.523438 -10.785156 4.773438 -11.859375 3.703125 -12.953125 C 2.628906 -14.023438 2.09375 -15.304688 2.09375 -16.796875 C 2.09375 -18.785156 2.851562 -20.363281 4.375 -21.53125 C 5.863281 -22.664062 7.707031 -23.234375 9.90625 -23.234375 C 11.507812 -23.234375 13.003906 -22.875 14.390625 -22.15625 C 15.804688 -21.40625 16.804688 -20.425781 17.390625 -19.21875 L 16.9375 -18.65625 C 16.332031 -19.894531 15.375 -20.835938 14.0625 -21.484375 C 12.738281 -22.191406 11.375 -22.546875 9.96875 -22.546875 C 8.40625 -22.546875 7.144531 -22.21875 6.1875 -21.5625 C 5.207031 -20.882812 4.71875 -20.046875 4.71875 -19.046875 C 4.71875 -18.148438 5.1875 -17.351562 6.125 -16.65625 C 7.0625 -15.9375 8.726562 -15.039062 11.125 -13.96875 C 13.601562 -12.863281 15.398438 -11.742188 16.515625 -10.609375 C 17.617188 -9.441406 18.171875 -8.171875 18.171875 -6.796875 Z M 18.171875 -6.796875 "/></g></g></g><g fill="#f8f4eb" fill-opacity="1"><g transform="translate(186.723863, 134.715637)"><g><path d="M 2.375 -23.03125 L 20.0625 -23.03125 L 8.125 -0.703125 L 20.0625 -0.703125 L 20.0625 0 L 2.375 0 L 14.34375 -22.328125 L 2.375 -22.328125 Z M 2.375 -23.03125 "/></g></g></g><g fill="#f8f4eb" fill-opacity="1"><g transform="translate(209.188785, 134.715637)"><g><path d="M 19.84375 -9.421875 L 19.84375 -23.03125 L 20.46875 -23.03125 L 20.46875 -9.421875 C 20.46875 -8.128906 20.304688 -6.925781 19.984375 -5.8125 C 19.660156 -4.6875 19.160156 -3.671875 18.484375 -2.765625 C 17.804688 -1.859375 16.894531 -1.132812 15.75 -0.59375 C 14.582031 -0.0625 13.226562 0.203125 11.6875 0.203125 C 9.28125 0.203125 7.3125 -0.46875 5.78125 -1.8125 C 3.84375 -3.539062 2.875 -6.132812 2.875 -9.59375 L 2.875 -23.03125 L 7.59375 -23.03125 L 7.59375 -8.890625 C 7.59375 -6.140625 8.023438 -4.050781 8.890625 -2.625 C 9.753906 -1.195312 10.910156 -0.484375 12.359375 -0.484375 C 14.734375 -0.484375 16.578125 -1.347656 17.890625 -3.078125 C 19.191406 -4.785156 19.84375 -6.898438 19.84375 -9.421875 Z M 19.84375 -9.421875 "/></g></g></g><g fill="#f8f4eb" fill-opacity="1"><g transform="translate(232.388544, 134.715637)"><g><path d="M 20.546875 -6.546875 C 20.546875 -4.867188 19.8125 -3.363281 18.34375 -2.03125 C 16.820312 -0.675781 14.628906 0 11.765625 0 L 2.90625 0 L 2.90625 -23.03125 L 10.84375 -23.03125 C 13.15625 -23.03125 14.953125 -22.539062 16.234375 -21.5625 C 17.617188 -20.46875 18.3125 -19.101562 18.3125 -17.46875 C 18.3125 -15.4375 17.585938 -13.800781 16.140625 -12.5625 C 17.492188 -11.976562 18.566406 -11.148438 19.359375 -10.078125 C 20.148438 -9.003906 20.546875 -7.828125 20.546875 -6.546875 Z M 9.90625 -22.328125 L 7.625 -22.328125 L 7.625 -12.59375 L 9.796875 -12.59375 C 10.847656 -12.59375 11.710938 -13.070312 12.390625 -14.03125 C 13.066406 -15.039062 13.40625 -16.1875 13.40625 -17.46875 C 13.40625 -18.863281 13.101562 -20.03125 12.5 -20.96875 C 11.863281 -21.875 11 -22.328125 9.90625 -22.328125 Z M 15.6875 -6.546875 C 15.6875 -7.992188 15.300781 -9.242188 14.53125 -10.296875 C 13.757812 -11.367188 12.519531 -11.90625 10.8125 -11.90625 L 7.625 -11.90625 L 7.625 -0.703125 L 10.78125 -0.703125 C 12.476562 -0.703125 13.710938 -1.296875 14.484375 -2.484375 C 15.285156 -3.648438 15.6875 -5.003906 15.6875 -6.546875 Z M 15.6875 -6.546875 "/></g></g></g><g fill="#f8f4eb" fill-opacity="1"><g transform="translate(122.583307, 264.434279)"><g><path d="M 4.453125 -9.21875 C 4.804688 -9.21875 5.144531 -9.144531 5.46875 -9 C 5.789062 -8.863281 6.070312 -8.675781 6.3125 -8.4375 C 6.550781 -8.207031 6.738281 -7.9375 6.875 -7.625 C 7.007812 -7.3125 7.078125 -6.972656 7.078125 -6.609375 C 7.078125 -6.242188 7.007812 -5.898438 6.875 -5.578125 C 6.738281 -5.253906 6.550781 -4.972656 6.3125 -4.734375 C 6.070312 -4.503906 5.789062 -4.320312 5.46875 -4.1875 C 5.144531 -4.050781 4.804688 -3.984375 4.453125 -3.984375 L 2.046875 -3.984375 L 2.046875 0 L 0.703125 0 L 0.703125 -9.21875 Z M 4.453125 -5.25 C 4.628906 -5.25 4.796875 -5.285156 4.953125 -5.359375 C 5.117188 -5.429688 5.257812 -5.53125 5.375 -5.65625 C 5.5 -5.78125 5.59375 -5.925781 5.65625 -6.09375 C 5.726562 -6.257812 5.765625 -6.4375 5.765625 -6.625 C 5.765625 -6.820312 5.726562 -7 5.65625 -7.15625 C 5.59375 -7.320312 5.5 -7.46875 5.375 -7.59375 C 5.257812 -7.71875 5.117188 -7.816406 4.953125 -7.890625 C 4.796875 -7.972656 4.628906 -8.015625 4.453125 -8.015625 L 2.046875 -8.015625 L 2.046875 -5.25 Z M 4.453125 -5.25 "/></g></g></g><g fill="#f8f4eb" fill-opacity="1"><g transform="translate(131.225992, 264.434279)"><g><path d="M 5 -9.34375 C 5.625 -9.34375 6.210938 -9.21875 6.765625 -8.96875 C 7.328125 -8.71875 7.8125 -8.378906 8.21875 -7.953125 C 8.632812 -7.523438 8.960938 -7.019531 9.203125 -6.4375 C 9.441406 -5.863281 9.5625 -5.253906 9.5625 -4.609375 C 9.5625 -3.960938 9.441406 -3.351562 9.203125 -2.78125 C 8.960938 -2.207031 8.632812 -1.707031 8.21875 -1.28125 C 7.800781 -0.851562 7.3125 -0.515625 6.75 -0.265625 C 6.195312 -0.015625 5.609375 0.109375 4.984375 0.109375 C 4.367188 0.109375 3.78125 -0.015625 3.21875 -0.265625 C 2.664062 -0.515625 2.179688 -0.851562 1.765625 -1.28125 C 1.359375 -1.707031 1.035156 -2.207031 0.796875 -2.78125 C 0.554688 -3.351562 0.4375 -3.960938 0.4375 -4.609375 C 0.4375 -5.253906 0.554688 -5.863281 0.796875 -6.4375 C 1.035156 -7.019531 1.363281 -7.523438 1.78125 -7.953125 C 2.195312 -8.378906 2.679688 -8.71875 3.234375 -8.96875 C 3.785156 -9.21875 4.375 -9.34375 5 -9.34375 Z M 5 -1.171875 C 5.445312 -1.171875 5.863281 -1.257812 6.25 -1.4375 C 6.632812 -1.613281 6.96875 -1.859375 7.25 -2.171875 C 7.539062 -2.484375 7.765625 -2.847656 7.921875 -3.265625 C 8.085938 -3.691406 8.171875 -4.140625 8.171875 -4.609375 C 8.171875 -5.085938 8.085938 -5.535156 7.921875 -5.953125 C 7.765625 -6.367188 7.539062 -6.734375 7.25 -7.046875 C 6.96875 -7.359375 6.632812 -7.601562 6.25 -7.78125 C 5.863281 -7.957031 5.445312 -8.046875 5 -8.046875 C 4.5625 -8.046875 4.148438 -7.957031 3.765625 -7.78125 C 3.378906 -7.601562 3.039062 -7.359375 2.75 -7.046875 C 2.46875 -6.734375 2.238281 -6.367188 2.0625 -5.953125 C 1.894531 -5.535156 1.8125 -5.085938 1.8125 -4.609375 C 1.8125 -4.140625 1.894531 -3.691406 2.0625 -3.265625 C 2.238281 -2.847656 2.46875 -2.484375 2.75 -2.171875 C 3.039062 -1.859375 3.378906 -1.613281 3.765625 -1.4375 C 4.148438 -1.257812 4.5625 -1.171875 5 -1.171875 Z M 5 -1.171875 "/></g></g></g><g fill="#f8f4eb" fill-opacity="1"><g transform="translate(142.272933, 264.434279)"><g><path d="M 0.765625 0 L 0.765625 -9.21875 L 2.125 -9.21875 L 2.125 -1.265625 L 6.390625 -1.265625 L 6.390625 0 Z M 0.765625 0 "/></g></g></g><g fill="#f8f4eb" fill-opacity="1"><g transform="translate(150.018893, 264.434279)"><g><path d="M 6.359375 -9.21875 L 6.359375 -8 L 2.078125 -8 L 2.078125 -5.484375 L 5.890625 -5.484375 L 5.890625 -4.21875 L 2.078125 -4.21875 L 2.078125 -1.265625 L 6.359375 -1.265625 L 6.359375 0 L 0.734375 0 L 0.734375 -9.21875 Z M 6.359375 -9.21875 "/></g></g></g><g fill="#f8f4eb" fill-opacity="1"><g transform="translate(158.232712, 264.434279)"><g/></g></g><g fill="#f8f4eb" fill-opacity="1"><g transform="translate(162.703672, 264.434279)"><g><path d="M 8.671875 -9.21875 L 8.671875 0 L 7.296875 0 L 2.140625 -7.078125 L 2.140625 0 L 0.734375 0 L 0.734375 -9.21875 L 2.15625 -9.21875 L 7.3125 -2.109375 L 7.3125 -9.21875 Z M 8.671875 -9.21875 "/></g></g></g><g fill="#f8f4eb" fill-opacity="1"><g transform="translate(173.204784, 264.434279)"><g><path d="M 1.625 0 L 0.140625 0 L 3.984375 -9.21875 L 5.46875 -9.21875 L 9.3125 0 L 7.84375 0 L 6.625 -2.890625 L 2.828125 -2.890625 Z M 3.34375 -4.140625 L 6.109375 -4.140625 L 4.734375 -7.46875 Z M 3.34375 -4.140625 "/></g></g></g><g fill="#f8f4eb" fill-opacity="1"><g transform="translate(183.796868, 264.434279)"><g><path d="M 8.578125 -9.21875 L 9.9375 -9.21875 L 9.9375 0 L 8.59375 0 L 8.59375 -7.078125 L 5.90625 -3.359375 L 4.84375 -3.359375 L 2.140625 -7.078125 L 2.140625 0 L 0.78125 0 L 0.78125 -9.21875 L 2.140625 -9.21875 L 5.375 -4.78125 Z M 8.578125 -9.21875 "/></g></g></g><g fill="#f8f4eb" fill-opacity="1"><g transform="translate(195.597586, 264.434279)"><g><path d="M 3.21875 -8.09375 L 3.21875 -1.125 L 3.90625 -1.125 L 3.90625 0 L 1.1875 0 L 1.1875 -1.125 L 1.875 -1.125 L 1.875 -8.09375 L 1.1875 -8.09375 L 1.1875 -9.21875 L 3.90625 -9.21875 L 3.90625 -8.09375 Z M 3.21875 -8.09375 "/></g></g></g><g fill="#f8f4eb" fill-opacity="1"><g transform="translate(201.784015, 264.434279)"><g><path d="M 5 -9.34375 C 5.625 -9.34375 6.210938 -9.21875 6.765625 -8.96875 C 7.328125 -8.71875 7.8125 -8.378906 8.21875 -7.953125 C 8.632812 -7.523438 8.960938 -7.019531 9.203125 -6.4375 C 9.441406 -5.863281 9.5625 -5.253906 9.5625 -4.609375 C 9.5625 -3.960938 9.441406 -3.351562 9.203125 -2.78125 C 8.960938 -2.207031 8.632812 -1.707031 8.21875 -1.28125 C 7.800781 -0.851562 7.3125 -0.515625 6.75 -0.265625 C 6.195312 -0.015625 5.609375 0.109375 4.984375 0.109375 C 4.367188 0.109375 3.78125 -0.015625 3.21875 -0.265625 C 2.664062 -0.515625 2.179688 -0.851562 1.765625 -1.28125 C 1.359375 -1.707031 1.035156 -2.207031 0.796875 -2.78125 C 0.554688 -3.351562 0.4375 -3.960938 0.4375 -4.609375 C 0.4375 -5.253906 0.554688 -5.863281 0.796875 -6.4375 C 1.035156 -7.019531 1.363281 -7.523438 1.78125 -7.953125 C 2.195312 -8.378906 2.679688 -8.71875 3.234375 -8.96875 C 3.785156 -9.21875 4.375 -9.34375 5 -9.34375 Z M 5 -1.171875 C 5.445312 -1.171875 5.863281 -1.257812 6.25 -1.4375 C 6.632812 -1.613281 6.96875 -1.859375 7.25 -2.171875 C 7.539062 -2.484375 7.765625 -2.847656 7.921875 -3.265625 C 8.085938 -3.691406 8.171875 -4.140625 8.171875 -4.609375 C 8.171875 -5.085938 8.085938 -5.535156 7.921875 -5.953125 C 7.765625 -6.367188 7.539062 -6.734375 7.25 -7.046875 C 6.96875 -7.359375 6.632812 -7.601562 6.25 -7.78125 C 5.863281 -7.957031 5.445312 -8.046875 5 -8.046875 C 4.5625 -8.046875 4.148438 -7.957031 3.765625 -7.78125 C 3.378906 -7.601562 3.039062 -7.359375 2.75 -7.046875 C 2.46875 -6.734375 2.238281 -6.367188 2.0625 -5.953125 C 1.894531 -5.535156 1.8125 -5.085938 1.8125 -4.609375 C 1.8125 -4.140625 1.894531 -3.691406 2.0625 -3.265625 C 2.238281 -2.847656 2.46875 -2.484375 2.75 -2.171875 C 3.039062 -1.859375 3.378906 -1.613281 3.765625 -1.4375 C 4.148438 -1.257812 4.5625 -1.171875 5 -1.171875 Z M 5 -1.171875 "/></g></g></g><g fill="#f8f4eb" fill-opacity="1"><g transform="translate(212.830956, 264.434279)"><g><path d="M 2.5625 -8 L 0.0625 -8 L 0.0625 -9.21875 L 6.421875 -9.21875 L 6.421875 -8 L 3.90625 -8 L 3.90625 0 L 2.5625 0 Z M 2.5625 -8 "/></g></g></g><g fill="#f8f4eb" fill-opacity="1"><g transform="translate(220.693877, 264.434279)"><g><path d="M 5 -9.34375 C 5.625 -9.34375 6.210938 -9.21875 6.765625 -8.96875 C 7.328125 -8.71875 7.8125 -8.378906 8.21875 -7.953125 C 8.632812 -7.523438 8.960938 -7.019531 9.203125 -6.4375 C 9.441406 -5.863281 9.5625 -5.253906 9.5625 -4.609375 C 9.5625 -3.960938 9.441406 -3.351562 9.203125 -2.78125 C 8.960938 -2.207031 8.632812 -1.707031 8.21875 -1.28125 C 7.800781 -0.851562 7.3125 -0.515625 6.75 -0.265625 C 6.195312 -0.015625 5.609375 0.109375 4.984375 0.109375 C 4.367188 0.109375 3.78125 -0.015625 3.21875 -0.265625 C 2.664062 -0.515625 2.179688 -0.851562 1.765625 -1.28125 C 1.359375 -1.707031 1.035156 -2.207031 0.796875 -2.78125 C 0.554688 -3.351562 0.4375 -3.960938 0.4375 -4.609375 C 0.4375 -5.253906 0.554688 -5.863281 0.796875 -6.4375 C 1.035156 -7.019531 1.363281 -7.523438 1.78125 -7.953125 C 2.195312 -8.378906 2.679688 -8.71875 3.234375 -8.96875 C 3.785156 -9.21875 4.375 -9.34375 5 -9.34375 Z M 5 -1.171875 C 5.445312 -1.171875 5.863281 -1.257812 6.25 -1.4375 C 6.632812 -1.613281 6.96875 -1.859375 7.25 -2.171875 C 7.539062 -2.484375 7.765625 -2.847656 7.921875 -3.265625 C 8.085938 -3.691406 8.171875 -4.140625 8.171875 -4.609375 C 8.171875 -5.085938 8.085938 -5.535156 7.921875 -5.953125 C 7.765625 -6.367188 7.539062 -6.734375 7.25 -7.046875 C 6.96875 -7.359375 6.632812 -7.601562 6.25 -7.78125 C 5.863281 -7.957031 5.445312 -8.046875 5 -8.046875 C 4.5625 -8.046875 4.148438 -7.957031 3.765625 -7.78125 C 3.378906 -7.601562 3.039062 -7.359375 2.75 -7.046875 C 2.46875 -6.734375 2.238281 -6.367188 2.0625 -5.953125 C 1.894531 -5.535156 1.8125 -5.085938 1.8125 -4.609375 C 1.8125 -4.140625 1.894531 -3.691406 2.0625 -3.265625 C 2.238281 -2.847656 2.46875 -2.484375 2.75 -2.171875 C 3.039062 -1.859375 3.378906 -1.613281 3.765625 -1.4375 C 4.148438 -1.257812 4.5625 -1.171875 5 -1.171875 Z M 5 -1.171875 "/></g></g></g><g fill="#f8f4eb" fill-opacity="1"><g transform="translate(231.740812, 264.434279)"><g><path d="M 10.71875 -9.21875 L 12.234375 -9.21875 L 9.46875 0 L 8.140625 0 L 6.421875 -5.734375 L 6.203125 -6.765625 L 5.96875 -5.6875 L 4.265625 0 L 2.921875 0 L 0.15625 -9.21875 L 1.65625 -9.21875 L 3.546875 -2.203125 L 5.6875 -9.21875 L 6.71875 -9.21875 L 8.84375 -2.265625 Z M 10.71875 -9.21875 "/></g></g></g><g fill="#f8f4eb" fill-opacity="1"><g transform="translate(245.257004, 264.434279)"><g><path d="M 6.359375 -9.21875 L 6.359375 -8 L 2.078125 -8 L 2.078125 -5.484375 L 5.890625 -5.484375 L 5.890625 -4.21875 L 2.078125 -4.21875 L 2.078125 -1.265625 L 6.359375 -1.265625 L 6.359375 0 L 0.734375 0 L 0.734375 -9.21875 Z M 6.359375 -9.21875 "/></g></g></g></svg>